<?xml version="1.0" encoding="UTF-8"?>
<svg xmlns="http://www.w3.org/2000/svg" xmlns:xlink="http://www.w3.org/1999/xlink" width="810pt" height="809.999993pt" viewBox="0 0 810 809.999993" version="1.2">
<g id="surface1">
<path style=" stroke:none;fill-rule:nonzero;fill:rgb(92.158508%,73.728943%,49.798584%);fill-opacity:1;" d="M 392.640625 642.757812 C 358.253906 626.398438 288.386719 578.65625 246.328125 561.042969 C 206.300781 544.765625 157.035156 525.667969 123.902344 471.972656 C 122.074219 468.71875 120.542969 465.328125 119.3125 461.804688 C 118.082031 458.28125 117.167969 454.675781 116.574219 450.992188 C 115.976562 447.304688 115.710938 443.597656 115.769531 439.863281 C 115.832031 436.132812 116.21875 432.433594 116.929688 428.769531 C 118.96875 414.914062 132.597656 399.496094 150.535156 373.039062 C 155.183594 365.367188 160.289062 358.007812 165.847656 350.964844 C 171.410156 343.921875 177.382812 337.246094 183.765625 330.9375 C 190.148438 324.632812 196.898438 318.742188 204.011719 313.265625 C 211.121094 307.792969 218.542969 302.773438 226.273438 298.214844 C 254.910156 279.515625 285.195312 264.042969 317.132812 251.800781 C 376.898438 213.449219 418.332031 184.644531 495.40625 158.816406 C 515.535156 152.085938 561.355469 145.667969 583.132812 149.109375 C 607.253906 153.023438 634.984375 175.175781 651.824219 195.132812 C 682.527344 231.371094 686.523438 262.289062 689.265625 304.710938 L 688.714844 302.597656 C 689.5 310.425781 695.375 466.339844 695.375 466.964844 C 696.597656 486.054688 695.890625 505.074219 693.257812 524.023438 C 691.347656 538.21875 687.957031 552.054688 683.085938 565.523438 C 678.214844 578.996094 671.96875 591.800781 664.355469 603.9375 C 662.246094 607.84375 659.847656 611.566406 657.160156 615.097656 C 654.472656 618.632812 651.527344 621.9375 648.320312 625.011719 C 645.117188 628.089844 641.695312 630.898438 638.054688 633.441406 C 634.410156 635.980469 630.59375 638.226562 626.601562 640.175781 C 618.078125 644.765625 609.207031 648.542969 599.996094 651.515625 C 590.78125 654.488281 581.375 656.605469 571.773438 657.863281 C 553.953125 660.425781 536.042969 661.910156 518.042969 662.324219 C 476.371094 664.046875 431.648438 661.308594 392.640625 642.757812 Z M 392.640625 642.757812 "/>
</g>
</svg>
